<svg xmlns="http://www.w3.org/2000/svg" width="213" height="196" viewBox="0 0 213 196">
    <defs>
        <filter id="j41dyzq6va" width="143.2%" height="163.5%" x="-21.6%" y="-31.8%" filterUnits="objectBoundingBox">
            <feGaussianBlur in="SourceGraphic" stdDeviation="1.8"/>
        </filter>
        <filter id="5cou5pdmyb" width="143.2%" height="163.5%" x="-21.6%" y="-31.8%" filterUnits="objectBoundingBox">
            <feGaussianBlur in="SourceGraphic" stdDeviation="1.8"/>
        </filter>
    </defs>
    <g fill="none" fill-rule="evenodd">
        <g>
            <g transform="translate(-65 -108) translate(65.784 108)">
                <g>
                    <path fill="#588AF9" d="M139.216 104.38c0 19.193-.365 34.698-9.845 47.275C119.89 164.232 99.886 170 85.419 170c-14.467 0-32.362-5.063-41.842-17.64-9.48-12.576-13.361-28.787-13.361-47.98C30.216 65.999 56.485 31 85.419 31c28.935 0 53.797 34.998 53.797 73.38" transform="translate(30)"/>
                    <path fill="#E20036" d="M126.216 83.5c0 4.695-5.596 8.5-12.5 8.5s-12.5-3.805-12.5-8.5c0-4.694 5.596-8.5 12.5-8.5s12.5 3.806 12.5 8.5" filter="url(#j41dyzq6va)" opacity=".199" transform="translate(30)"/>
                    <path fill="#E20036" d="M67.216 83.5c0 4.695-5.596 8.5-12.5 8.5s-12.5-3.805-12.5-8.5c0-4.694 5.596-8.5 12.5-8.5s12.5 3.806 12.5 8.5" filter="url(#5cou5pdmyb)" opacity=".199" transform="translate(30)"/>
                    <path fill="#588AF9" d="M68.237 38s-.425-17.295 2.55-23.926c2.978-6.63 4.983-9.956 8.055-11.661C81.914.709 83.983.668 85.05 2.29c1.066 1.621-.908 6.59-.908 6.59s-4.011 6.651-3.979 8.293c.032 1.643 6.256-11.799 11.094-15.006 5.109-3.387 8.693-2.72 11.412 1.416 2.132 3.243-3.948 9.936-3.948 9.936l-9.12 10.04 4.106-1.726s4.77-1.341 7.904.24c3.136 1.58 3.572 4.461 3.604 6.103.032 1.643-.94 4.948-6.113 5.05-5.172.103-15.486 1.951-15.486 1.951L68.236 38z" transform="translate(30)"/>
                    <path fill="#FFF" d="M79.216 56c0 13.256-10.745 24-24 24s-24-10.744-24-24c0-13.255 10.745-24 24-24s24 10.745 24 24M136.216 56c0 13.256-10.745 24-24 24s-24-10.744-24-24c0-13.255 10.745-24 24-24s24 10.745 24 24" transform="translate(30)"/>
                    <path fill="#753B14" d="M71.216 83l4.875 7.52s5.927 8.541 9.055 8.48c3.004-.06 8.358-8.48 8.358-8.48l3.712-7.244-26-.276z" transform="translate(30)"/>
                    <path fill="#E20036" d="M91.216 92.124s-3.984 5.834-6.22 5.876c-2.327.042-6.738-5.876-6.738-5.876s-.518-1.703 2.074-2.177c2.59-.473 4.146 1.421 4.146 1.421S86.032 89 88.106 89c3.11 0 3.11 3.124 3.11 3.124" transform="translate(30)"/>
                    <path fill="#FFEB93" d="M70.216 82.863s6.756.862 8.21-.69C79.88 80.624 83.058 75 83.058 75l.158 12-13-4.137z" transform="translate(30)"/>
                    <path fill="#FCBA7E" d="M98.216 82.667s-8.482.902-10-.723c-1.518-1.625-5-7.944-5-7.944v13l15-4.333z" transform="translate(30)"/>
                    <path fill="#588AF9" d="M60.216 182L68.216 182 68.216 157 60.216 157zM100.216 182L108.216 182 108.216 157 100.216 157z" transform="translate(30)"/>
                    <path fill="#F84040" d="M34.318 135.342c2.119 6.542 5.081 12.492 9.017 17.8C52.773 165.876 70.588 171 84.99 171c14.403 0 34.318-5.84 43.756-18.571 6.62-8.929 8.773-19.319 9.47-31.429H47.464s-14.604 9.836-13.146 14.342M57.56 180L71.216 180 69.778 195.304 48.216 196 59.716 187.652z" transform="translate(30)"/>
                    <path fill="#3A76CC" d="M144.216 100s-10.981 8.267-13.98 19.4c-3 11.134 1.336 16.9 3.8 19.947 2.464 3.048 1.286-5.562 1.286-5.562s-1.598-9.626 3.223-19.181c5.385-10.67 5.67-14.604 5.67-14.604" transform="translate(30)"/>
                    <path fill="#F84040" d="M111.872 180L98.216 180 99.653 195.304 121.216 196 109.716 187.652z" transform="translate(30)"/>
                    <path fill="#588AF9" d="M137.236 89.001s2.267 8.411 1.921 13.486c-.346 5.077-6.103 13.289-6.733 19.523-.629 6.234-.156 18.632 6.008 21.047 6.162 2.415 10.491 2.242 12.19 1.287 1.697-.955 1.663-1.84 1.63-2.726-.034-.885-.968-2.622-2.7-2.553-1.731.07 2.564-.989 2.53-1.874-.033-.886-.067-1.771-3.53-1.634-3.465.14-6.962-.609-6.163-2.414 1.596-3.612 7.725-2.083 12.684-8.49 4.959-6.406 3.024-11.65 1.124-16.009-1.901-4.36-4.701-9.57-8.3-12.973-3.599-3.404-8.93-6.74-10.661-6.67" transform="translate(30)"/>
                    <path fill="#588AF9" d="M135.216 67.75c0 7.318-10.298 13.25-23 13.25-12.703 0-23-5.932-23-13.25 0-3.531 3.647 7.98 23.691 7.98 20.666 0 22.309-11.765 22.309-7.98M79.216 65.046C79.216 74.41 68.695 82 55.716 82c-12.98 0-23.5-7.59-23.5-16.954 0-4.52 2.364 8.711 22.844 8.711 21.116 0 24.156-13.555 24.156-8.711" opacity=".316" transform="translate(30)"/>
                    <path fill="#588AF9" d="M26.716 114.411S2.697 91.47.746 81.485c-1.95-9.983 1.828-11.878 5.588-16.897 3.76-5.017 24.192-20.748 27.988-19.52 3.795 1.229-7.796 17.222-7.796 17.222s10.084-3.491 12.63-.07c2.545 3.422.025 4.685-2.493 5.949-2.596 1.301-7.884 1.605-8.824 2.86-.94 1.254 10.104 18.957 10.104 18.957L32.746 120l-6.03-5.589z" transform="translate(30)"/>
                    <path fill="#285FDB" d="M13.982 61.058c1.878-.241 6.234.102 6.234 4.261 0 3.467-13 4.681-13 4.681s3.209-1.375 5.464-2.492c1.209-.6 2.896-1.786 3.341-2.882.385-.948-.316-1.82-1.172-2.278-.925-.495-3.722-.495-3.722-.495s2.12-.7 2.855-.795" transform="translate(30)"/>
                    <path fill="#2B2B2B" d="M122.216 54.5c0 6.352-4.701 11.5-10.5 11.5-5.8 0-10.5-5.148-10.5-11.5 0-6.35 4.7-11.5 10.5-11.5 5.799 0 10.5 5.15 10.5 11.5" transform="translate(30)"/>
                    <path fill="#FFF" d="M108.95 50.225l.766-2.225.766 2.225c.4.798 1.07 1.43 1.89 1.781l1.844.494-1.845.494c-.82.352-1.49.983-1.889 1.782L109.716 57l-.766-2.224c-.4-.799-1.069-1.43-1.89-1.782l-1.844-.494 1.845-.494c.82-.351 1.49-.983 1.89-1.78M116.216 61.5c0 1.38-.671 2.5-1.5 2.5s-1.5-1.12-1.5-2.5.671-2.5 1.5-2.5 1.5 1.12 1.5 2.5M119.216 55c0 .552-.224 1-.5 1s-.5-.448-.5-1c0-.551.224-1 .5-1s.5.449.5 1" transform="translate(30)"/>
                    <path fill="#2B2B2B" d="M66.216 55.5c0 6.352-4.701 11.5-10.5 11.5-5.8 0-10.5-5.148-10.5-11.5 0-6.35 4.7-11.5 10.5-11.5 5.799 0 10.5 5.15 10.5 11.5" transform="translate(30)"/>
                    <path fill="#FFF" d="M50.95 50.225L51.716 48l.767 2.225c.399.798 1.068 1.43 1.888 1.781l1.845.494-1.845.494c-.82.352-1.49.983-1.888 1.782L51.716 57l-.766-2.224c-.4-.799-1.069-1.43-1.89-1.782l-1.844-.494 1.845-.494c.82-.351 1.49-.983 1.89-1.78M59.216 61.5c0 1.38-.671 2.5-1.5 2.5-.828 0-1.5-1.12-1.5-2.5s.672-2.5 1.5-2.5c.829 0 1.5 1.12 1.5 2.5M62.216 55c0 .552-.224 1-.5 1s-.5-.448-.5-1c0-.551.224-1 .5-1s.5.449.5 1" transform="translate(30)"/>
                    <path fill="#F84040" d="M122.632 121L137.216 84.061 134.553 75 112.216 121z" transform="translate(30)"/>
                    <path fill="#FF96A3" d="M48.216 121L48.924 130 67.216 121zM113.216 134c0 13.255-10.746 24-24 24-13.255 0-24-10.745-24-24" transform="translate(30)"/>
                </g>
                <path fill="#FFC540" d="M196.469 16.203L198 12l1.533 4.203c.799 1.508 2.138 2.7 3.778 3.365L207 20.5l-3.689.934c-1.64.664-2.98 1.857-3.778 3.364L198 29l-1.531-4.202c-.8-1.507-2.138-2.7-3.779-3.364L189 20.5l3.69-.932c1.64-.665 2.98-1.857 3.779-3.365M9.958 107.192L12 102l2.044 5.192c1.065 1.862 2.85 3.336 5.038 4.156L24 112.5l-4.918 1.153c-2.188.821-3.973 2.294-5.038 4.157L12 123l-2.042-5.19c-1.065-1.863-2.85-3.336-5.038-4.157L0 112.5l4.92-1.152c2.188-.82 3.973-2.294 5.038-4.156"/>
                <ellipse cx="64" cy="8.5" fill="#66D6FB" rx="3" ry="2.5"/>
                <ellipse cx="207" cy="133.5" fill="#66D6FB" rx="5" ry="4.5"/>
            </g>
        </g>
    </g>
</svg>